<?xml version="1.0" standalone="yes"?>
<svg xmlns="http://www.w3.org/2000/svg" width="512" height="512">
<path style="fill:#fdfdfd; stroke:none;" d="M0 0L0 495C9.62321 489.994 14.853 477.899 20.4244 469C31.7355 450.934 43.1662 432.929 54.6921 415C100.174 344.253 144.072 272.455 190 202C205.101 178.835 219.901 155.438 234.576 132C239.208 124.602 245.783 110.937 256 110.937C266.372 110.937 272.551 124.623 277.343 132C292.835 155.849 308.206 179.83 323.192 204C367.503 275.464 412.852 346.484 458.657 417C470.478 435.199 482.06 453.606 493.576 472C498.521 479.898 503.237 490.902 512 495L512 0L0 0z"/>
<path style="fill:#555555; stroke:none;" d="M255.667 110.333L256.333 110.667L255.667 110.333z"/>
<path style="fill:#a4a4a4; stroke:none;" d="M0 506C10.1624 502.466 15.806 487.525 21.3434 479C37.0439 454.829 52.1059 430.245 67.6921 406C110.612 339.237 153.309 272.274 195.424 205C214.812 174.031 238.796 143.71 255 111C244.011 112.224 238.661 124.673 233.308 133C219.422 154.6 205.7 176.316 191.947 198L50.9468 420L14.0532 478C7.71988 487.985 0 493.822 0 506z"/>
<path style="fill:#2e2e2e; stroke:none;" d="M254 112L254 113L258 113L254 112z"/>
<path style="fill:#a4a4a4; stroke:none;" d="M257 111C273.204 143.71 297.188 174.031 316.576 205C358.691 272.274 401.387 339.237 444.308 406C459.894 430.245 474.956 454.829 490.657 479C496.194 487.525 501.838 502.466 512 506C512 493.78 503.842 487.004 497.343 477C485.52 458.798 473.9 440.424 462.424 422C415.651 346.908 367.057 272.948 320.05 198C306.196 175.911 292.239 153.843 278 132C272.721 123.902 267.734 112.195 257 111z"/>
<path style="fill:#010101; stroke:none;" d="M255 112L92.3079 368L31.9468 463L1 512L511 512L480.053 463L419.692 368L257 112L255 112z"/>
<path style="fill:#2e2e2e; stroke:none;" d="M253 114L254 115L253 114M258 114L259 115L258 114M252 115L253 116L252 115M259 115L260 116L259 115z"/>
<path style="fill:#555555; stroke:none;" d="M251 116L252 117L251 116M260 116L261 117L260 116z"/>
<path style="fill:#2e2e2e; stroke:none;" d="M251 117L252 118L251 117M260 117L261 118L260 117z"/>
<path style="fill:#555555; stroke:none;" d="M250 118L251 119L250 118M261 118L262 119L261 118z"/>
<path style="fill:#2e2e2e; stroke:none;" d="M250 119L251 120L250 119M261 119L262 120L261 119M249 120L250 121L249 120M262 120L263 121L262 120z"/>
<path style="fill:#555555; stroke:none;" d="M248 121L249 122L248 121M263 121L264 122L263 121z"/>
<path style="fill:#2e2e2e; stroke:none;" d="M248 122L249 123L248 122M263 122L264 123L263 122M247 123L248 124L247 123M264 123L265 124L264 123z"/>
<path style="fill:#555555; stroke:none;" d="M246 124L247 125L246 124M265 124L266 125L265 124z"/>
<path style="fill:#2e2e2e; stroke:none;" d="M246 125L247 126L246 125M265 125L266 126L265 125M245 126L246 127L245 126M266 126L267 127L266 126z"/>
<path style="fill:#555555; stroke:none;" d="M244 127L245 128L244 127M267 127L268 128L267 127z"/>
<path style="fill:#2e2e2e; stroke:none;" d="M244 128L245 129L244 128M267 128L268 129L267 128M243.333 129.667L243.667 130.333L243.333 129.667M268.333 129.667L268.667 130.333L268.333 129.667M242 131L243 132L242 131M269 131L270 132L269 131z"/>
<path style="fill:#555555; stroke:none;" d="M241 132L242 133L241 132M270 132L271 133L270 132z"/>
<path style="fill:#2e2e2e; stroke:none;" d="M241 133L242 134L241 133M270 133L271 134L270 133M240 134L241 135L240 134M271 134L272 135L271 134z"/>
<path style="fill:#555555; stroke:none;" d="M239 135L240 136L239 135M272 135L273 136L272 135z"/>
<path style="fill:#2e2e2e; stroke:none;" d="M239 136L240 137L239 136M272 136L273 137L272 136M238 137L239 138L238 137M273 137L274 138L273 137z"/>
<path style="fill:#555555; stroke:none;" d="M237 138L238 139L237 138M274 138L275 139L274 138z"/>
<path style="fill:#2e2e2e; stroke:none;" d="M237 139L238 140L237 139M274 139L275 140L274 139M236.333 140.667L236.667 141.333L236.333 140.667M275.333 140.667L275.667 141.333L275.333 140.667M235 142L236 143L235 142M276 142L277 143L276 142z"/>
<path style="fill:#555555; stroke:none;" d="M234 143L235 144L234 143M277 143L278 144L277 143z"/>
<path style="fill:#2e2e2e; stroke:none;" d="M234 144L235 145L234 144M277 144L278 145L277 144M233 145L234 146L233 145M278 145L279 146L278 145z"/>
<path style="fill:#555555; stroke:none;" d="M232 146L233 147L232 146M279 146L280 147L279 146z"/>
<path style="fill:#2e2e2e; stroke:none;" d="M232 147L233 148L232 147M279 147L280 148L279 147M231 148L232 149L231 148M280 148L281 149L280 148z"/>
<path style="fill:#555555; stroke:none;" d="M230 149L231 150L230 149M281 149L282 150L281 149z"/>
<path style="fill:#2e2e2e; stroke:none;" d="M230 150L231 151L230 150M281 150L282 151L281 150M229.333 151.667L229.667 152.333L229.333 151.667M282.333 151.667L282.667 152.333L282.333 151.667z"/>
<path style="fill:#555555; stroke:none;" d="M228 153L229 154L228 153M283 153L284 154L283 153M227 154L228 155L227 154M284 154L285 155L284 154z"/>
<path style="fill:#2e2e2e; stroke:none;" d="M227 155L228 156L227 155M284 155L285 156L284 155M226 156L227 157L226 156M285 156L286 157L285 156z"/>
<path style="fill:#555555; stroke:none;" d="M225 157L226 158L225 157M286 157L287 158L286 157z"/>
<path style="fill:#2e2e2e; stroke:none;" d="M225 158L226 159L225 158M286 158L287 159L286 158M224 159L225 160L224 159M287 159L288 160L287 159z"/>
<path style="fill:#555555; stroke:none;" d="M223 160L224 161L223 160M288 160L289 161L288 160z"/>
<path style="fill:#2e2e2e; stroke:none;" d="M223 161L224 162L223 161M288 161L289 162L288 161M222.333 162.667L222.667 163.333L222.333 162.667M289.333 162.667L289.667 163.333L289.333 162.667z"/>
<path style="fill:#555555; stroke:none;" d="M221 164L222 165L221 164M290 164L291 165L290 164M220 165L221 166L220 165M291 165L292 166L291 165z"/>
<path style="fill:#2e2e2e; stroke:none;" d="M220 166L221 167L220 166M291 166L292 167L291 166M219 167L220 168L219 167M292 167L293 168L292 167z"/>
<path style="fill:#555555; stroke:none;" d="M218 168L219 169L218 168M293 168L294 169L293 168z"/>
<path style="fill:#2e2e2e; stroke:none;" d="M218 169L219 170L218 169M293 169L294 170L293 169M217 170L218 171L217 170M294 170L295 171L294 170z"/>
<path style="fill:#555555; stroke:none;" d="M216 171L217 172L216 171M295 171L296 172L295 171z"/>
<path style="fill:#2e2e2e; stroke:none;" d="M216 172L217 173L216 172M295 172L296 173L295 172M215.333 173.667L215.667 174.333L215.333 173.667M296.333 173.667L296.667 174.333L296.333 173.667z"/>
<path style="fill:#555555; stroke:none;" d="M214 175L215 176L214 175M297 175L298 176L297 175M213 176L214 177L213 176M298 176L299 177L298 176z"/>
<path style="fill:#2e2e2e; stroke:none;" d="M213 177L214 178L213 177M298 177L299 178L298 177M212 178L213 179L212 178M299 178L300 179L299 178z"/>
<path style="fill:#555555; stroke:none;" d="M211 179L212 180L211 179M300 179L301 180L300 179z"/>
<path style="fill:#2e2e2e; stroke:none;" d="M211 180L212 181L211 180M300 180L301 181L300 180M210 181L211 182L210 181M301 181L302 182L301 181z"/>
<path style="fill:#555555; stroke:none;" d="M209 182L210 183L209 182M302 182L303 183L302 182z"/>
<path style="fill:#2e2e2e; stroke:none;" d="M209 183L210 184L209 183M302 183L303 184L302 183M208.333 184.667L208.667 185.333L208.333 184.667M303.333 184.667L303.667 185.333L303.333 184.667z"/>
<path style="fill:#555555; stroke:none;" d="M207 186L208 187L207 186M304 186L305 187L304 186M206 187L207 188L206 187M305 187L306 188L305 187z"/>
<path style="fill:#2e2e2e; stroke:none;" d="M206 188L207 189L206 188M305 188L306 189L305 188M205 189L206 190L205 189M306 189L307 190L306 189z"/>
<path style="fill:#555555; stroke:none;" d="M204 190L205 191L204 190M307 190L308 191L307 190z"/>
<path style="fill:#2e2e2e; stroke:none;" d="M204 191L205 192L204 191M307 191L308 192L307 191M203 192L204 193L203 192M308 192L309 193L308 192z"/>
<path style="fill:#555555; stroke:none;" d="M202 193L203 194L202 193M309 193L310 194L309 193z"/>
<path style="fill:#2e2e2e; stroke:none;" d="M202 194L203 195L202 194M309 194L310 195L309 194z"/>
<path style="fill:#555555; stroke:none;" d="M201 195L202 196L201 195M310 195L311 196L310 195z"/>
<path style="fill:#2e2e2e; stroke:none;" d="M201 196L202 197L201 196M310 196L311 197L310 196z"/>
<path style="fill:#555555; stroke:none;" d="M200 197L201 198L200 197M311 197L312 198L311 197M199 198L200 199L199 198M312 198L313 199L312 198z"/>
<path style="fill:#2e2e2e; stroke:none;" d="M199 199L200 200L199 199M312 199L313 200L312 199M198 200L199 201L198 200M313 200L314 201L313 200z"/>
<path style="fill:#555555; stroke:none;" d="M197 201L198 202L197 201M314 201L315 202L314 201z"/>
<path style="fill:#2e2e2e; stroke:none;" d="M197 202L198 203L197 202M314 202L315 203L314 202M196 203L197 204L196 203M315 203L316 204L315 203z"/>
<path style="fill:#555555; stroke:none;" d="M195 204L196 205L195 204M316 204L317 205L316 204z"/>
<path style="fill:#2e2e2e; stroke:none;" d="M195 205L196 206L195 205M316 205L317 206L316 205z"/>
<path style="fill:#555555; stroke:none;" d="M194 206L195 207L194 206M317 206L318 207L317 206z"/>
<path style="fill:#2e2e2e; stroke:none;" d="M194 207L195 208L194 207M317 207L318 208L317 207z"/>
<path style="fill:#555555; stroke:none;" d="M193 208L194 209L193 208M318 208L319 209L318 208M192 209L193 210L192 209M319 209L320 210L319 209z"/>
<path style="fill:#2e2e2e; stroke:none;" d="M192 210L193 211L192 210M319 210L320 211L319 210M191 211L192 212L191 211M320 211L321 212L320 211z"/>
<path style="fill:#555555; stroke:none;" d="M190 212L191 213L190 212M321 212L322 213L321 212z"/>
<path style="fill:#2e2e2e; stroke:none;" d="M190 213L191 214L190 213M321 213L322 214L321 213M189.333 214.667L189.667 215.333L189.333 214.667M322.333 214.667L322.667 215.333L322.333 214.667M188 216L189 217L188 216M323 216L324 217L323 216z"/>
<path style="fill:#555555; stroke:none;" d="M187 217L188 218L187 217M324 217L325 218L324 217z"/>
<path style="fill:#2e2e2e; stroke:none;" d="M187 218L188 219L187 218M324 218L325 219L324 218z"/>
<path style="fill:#555555; stroke:none;" d="M186 219L187 220L186 219M325 219L326 220L325 219M185 220L186 221L185 220M326 220L327 221L326 220z"/>
<path style="fill:#2e2e2e; stroke:none;" d="M185 221L186 222L185 221M326 221L327 222L326 221M184 222L185 223L184 222M327 222L328 223L327 222z"/>
<path style="fill:#555555; stroke:none;" d="M183 223L184 224L183 223M328 223L329 224L328 223z"/>
<path style="fill:#2e2e2e; stroke:none;" d="M183 224L184 225L183 224M328 224L329 225L328 224M182.333 225.667L182.667 226.333L182.333 225.667M329.333 225.667L329.667 226.333L329.333 225.667M181 227L182 228L181 227M330 227L331 228L330 227z"/>
<path style="fill:#555555; stroke:none;" d="M180 228L181 229L180 228M331 228L332 229L331 228z"/>
<path style="fill:#2e2e2e; stroke:none;" d="M180 229L181 230L180 229M331 229L332 230L331 229M179 230L180 231L179 230M332 230L333 231L332 230z"/>
<path style="fill:#555555; stroke:none;" d="M178 231L179 232L178 231M333 231L334 232L333 231z"/>
<path style="fill:#2e2e2e; stroke:none;" d="M178 232L179 233L178 232M333 232L334 233L333 232M177 233L178 234L177 233M334 233L335 234L334 233z"/>
<path style="fill:#555555; stroke:none;" d="M176 234L177 235L176 234M335 234L336 235L335 234z"/>
<path style="fill:#2e2e2e; stroke:none;" d="M176 235L177 236L176 235M335 235L336 236L335 235M175.333 236.667L175.667 237.333L175.333 236.667M336.333 236.667L336.667 237.333L336.333 236.667M174 238L175 239L174 238M337 238L338 239L337 238z"/>
<path style="fill:#555555; stroke:none;" d="M173 239L174 240L173 239M338 239L339 240L338 239z"/>
<path style="fill:#2e2e2e; stroke:none;" d="M173 240L174 241L173 240M338 240L339 241L338 240M172 241L173 242L172 241M339 241L340 242L339 241z"/>
<path style="fill:#555555; stroke:none;" d="M171 242L172 243L171 242M340 242L341 243L340 242z"/>
<path style="fill:#2e2e2e; stroke:none;" d="M171 243L172 244L171 243M340 243L341 244L340 243M170 244L171 245L170 244M341 244L342 245L341 244z"/>
<path style="fill:#555555; stroke:none;" d="M169 245L170 246L169 245M342 245L343 246L342 245z"/>
<path style="fill:#2e2e2e; stroke:none;" d="M169 246L170 247L169 246M342 246L343 247L342 246M168.333 247.667L168.667 248.333L168.333 247.667M343.333 247.667L343.667 248.333L343.333 247.667M167 249L168 250L167 249M344 249L345 250L344 249z"/>
<path style="fill:#555555; stroke:none;" d="M166 250L167 251L166 250M345 250L346 251L345 250z"/>
<path style="fill:#2e2e2e; stroke:none;" d="M166 251L167 252L166 251M345 251L346 252L345 251M165 252L166 253L165 252M346 252L347 253L346 252z"/>
<path style="fill:#555555; stroke:none;" d="M164 253L165 254L164 253M347 253L348 254L347 253z"/>
<path style="fill:#2e2e2e; stroke:none;" d="M164 254L165 255L164 254M347 254L348 255L347 254M163 255L164 256L163 255M348 255L349 256L348 255z"/>
<path style="fill:#555555; stroke:none;" d="M162 256L163 257L162 256M349 256L350 257L349 256z"/>
<path style="fill:#2e2e2e; stroke:none;" d="M162 257L163 258L162 257M349 257L350 258L349 257M161.333 258.667L161.667 259.333L161.333 258.667M350.333 258.667L350.667 259.333L350.333 258.667M160 260L161 261L160 260M351 260L352 261L351 260z"/>
<path style="fill:#555555; stroke:none;" d="M159 261L160 262L159 261M352 261L353 262L352 261z"/>
<path style="fill:#2e2e2e; stroke:none;" d="M159 262L160 263L159 262M352 262L353 263L352 262M158 263L159 264L158 263M353 263L354 264L353 263z"/>
<path style="fill:#555555; stroke:none;" d="M157 264L158 265L157 264M354 264L355 265L354 264z"/>
<path style="fill:#2e2e2e; stroke:none;" d="M157 265L158 266L157 265M354 265L355 266L354 265M156 266L157 267L156 266M355 266L356 267L355 266z"/>
<path style="fill:#555555; stroke:none;" d="M155 267L156 268L155 267M356 267L357 268L356 267z"/>
<path style="fill:#2e2e2e; stroke:none;" d="M155 268L156 269L155 268M356 268L357 269L356 268M154.333 269.667L154.667 270.333L154.333 269.667M357.333 269.667L357.667 270.333L357.333 269.667z"/>
<path style="fill:#555555; stroke:none;" d="M153 271L154 272L153 271M358 271L359 272L358 271M152 272L153 273L152 272M359 272L360 273L359 272z"/>
<path style="fill:#2e2e2e; stroke:none;" d="M152 273L153 274L152 273M359 273L360 274L359 273M151 274L152 275L151 274M360 274L361 275L360 274z"/>
<path style="fill:#555555; stroke:none;" d="M150 275L151 276L150 275M361 275L362 276L361 275z"/>
<path style="fill:#2e2e2e; stroke:none;" d="M150 276L151 277L150 276M361 276L362 277L361 276M149 277L150 278L149 277M362 277L363 278L362 277z"/>
<path style="fill:#555555; stroke:none;" d="M148 278L149 279L148 278M363 278L364 279L363 278z"/>
<path style="fill:#2e2e2e; stroke:none;" d="M148 279L149 280L148 279M363 279L364 280L363 279M147.333 280.667L147.667 281.333L147.333 280.667M364.333 280.667L364.667 281.333L364.333 280.667z"/>
<path style="fill:#555555; stroke:none;" d="M146 282L147 283L146 282M365 282L366 283L365 282M145 283L146 284L145 283M366 283L367 284L366 283z"/>
<path style="fill:#2e2e2e; stroke:none;" d="M145 284L146 285L145 284M366 284L367 285L366 284M144 285L145 286L144 285M367 285L368 286L367 285z"/>
<path style="fill:#555555; stroke:none;" d="M143 286L144 287L143 286M368 286L369 287L368 286z"/>
<path style="fill:#2e2e2e; stroke:none;" d="M143 287L144 288L143 287M368 287L369 288L368 287M142 288L143 289L142 288M369 288L370 289L369 288z"/>
<path style="fill:#555555; stroke:none;" d="M141 289L142 290L141 289M370 289L371 290L370 289z"/>
<path style="fill:#2e2e2e; stroke:none;" d="M141 290L142 291L141 290M370 290L371 291L370 290M140.333 291.667L140.667 292.333L140.333 291.667M371.333 291.667L371.667 292.333L371.333 291.667z"/>
<path style="fill:#555555; stroke:none;" d="M139 293L140 294L139 293M372 293L373 294L372 293M138 294L139 295L138 294M373 294L374 295L373 294z"/>
<path style="fill:#2e2e2e; stroke:none;" d="M138 295L139 296L138 295M373 295L374 296L373 295M137 296L138 297L137 296M374 296L375 297L374 296z"/>
<path style="fill:#555555; stroke:none;" d="M136 297L137 298L136 297M375 297L376 298L375 297z"/>
<path style="fill:#2e2e2e; stroke:none;" d="M136 298L137 299L136 298M375 298L376 299L375 298M135 299L136 300L135 299M376 299L377 300L376 299z"/>
<path style="fill:#555555; stroke:none;" d="M134 300L135 301L134 300M377 300L378 301L377 300z"/>
<path style="fill:#2e2e2e; stroke:none;" d="M134 301L135 302L134 301M377 301L378 302L377 301M133.333 302.667L133.667 303.333L133.333 302.667M378.333 302.667L378.667 303.333L378.333 302.667z"/>
<path style="fill:#555555; stroke:none;" d="M132 304L133 305L132 304M379 304L380 305L379 304M131 305L132 306L131 305M380 305L381 306L380 305z"/>
<path style="fill:#2e2e2e; stroke:none;" d="M131 306L132 307L131 306M380 306L381 307L380 306M130 307L131 308L130 307M381 307L382 308L381 307z"/>
<path style="fill:#555555; stroke:none;" d="M129 308L130 309L129 308M382 308L383 309L382 308z"/>
<path style="fill:#2e2e2e; stroke:none;" d="M129 309L130 310L129 309M382 309L383 310L382 309M128 310L129 311L128 310M383 310L384 311L383 310z"/>
<path style="fill:#555555; stroke:none;" d="M127 311L128 312L127 311M384 311L385 312L384 311z"/>
<path style="fill:#2e2e2e; stroke:none;" d="M127 312L128 313L127 312M384 312L385 313L384 312z"/>
<path style="fill:#555555; stroke:none;" d="M126 313L127 314L126 313M385 313L386 314L385 313z"/>
<path style="fill:#2e2e2e; stroke:none;" d="M126 314L127 315L126 314M385 314L386 315L385 314z"/>
<path style="fill:#555555; stroke:none;" d="M125 315L126 316L125 315M386 315L387 316L386 315M124 316L125 317L124 316M387 316L388 317L387 316z"/>
<path style="fill:#2e2e2e; stroke:none;" d="M124 317L125 318L124 317M387 317L388 318L387 317M123 318L124 319L123 318M388 318L389 319L388 318z"/>
<path style="fill:#555555; stroke:none;" d="M122 319L123 320L122 319M389 319L390 320L389 319z"/>
<path style="fill:#2e2e2e; stroke:none;" d="M122 320L123 321L122 320M389 320L390 321L389 320M121 321L122 322L121 321M390 321L391 322L390 321z"/>
<path style="fill:#555555; stroke:none;" d="M120 322L121 323L120 322M391 322L392 323L391 322z"/>
<path style="fill:#2e2e2e; stroke:none;" d="M120 323L121 324L120 323M391 323L392 324L391 323z"/>
<path style="fill:#555555; stroke:none;" d="M119 324L120 325L119 324M392 324L393 325L392 324z"/>
<path style="fill:#2e2e2e; stroke:none;" d="M119 325L120 326L119 325M392 325L393 326L392 325z"/>
<path style="fill:#555555; stroke:none;" d="M118 326L119 327L118 326M393 326L394 327L393 326M117 327L118 328L117 327M394 327L395 328L394 327z"/>
<path style="fill:#2e2e2e; stroke:none;" d="M117 328L118 329L117 328M394 328L395 329L394 328M116 329L117 330L116 329M395 329L396 330L395 329z"/>
<path style="fill:#555555; stroke:none;" d="M115 330L116 331L115 330M396 330L397 331L396 330z"/>
<path style="fill:#2e2e2e; stroke:none;" d="M115 331L116 332L115 331M396 331L397 332L396 331M114.333 332.667L114.667 333.333L114.333 332.667M397.333 332.667L397.667 333.333L397.333 332.667M113 334L114 335L113 334M398 334L399 335L398 334z"/>
<path style="fill:#555555; stroke:none;" d="M112 335L113 336L112 335M399 335L400 336L399 335z"/>
<path style="fill:#2e2e2e; stroke:none;" d="M112 336L113 337L112 336M399 336L400 337L399 336z"/>
<path style="fill:#555555; stroke:none;" d="M111 337L112 338L111 337M400 337L401 338L400 337M110 338L111 339L110 338M401 338L402 339L401 338z"/>
<path style="fill:#2e2e2e; stroke:none;" d="M110 339L111 340L110 339M401 339L402 340L401 339M109 340L110 341L109 340M402 340L403 341L402 340z"/>
<path style="fill:#555555; stroke:none;" d="M108 341L109 342L108 341M403 341L404 342L403 341z"/>
<path style="fill:#2e2e2e; stroke:none;" d="M108 342L109 343L108 342M403 342L404 343L403 342M107.333 343.667L107.667 344.333L107.333 343.667M404.333 343.667L404.667 344.333L404.333 343.667M106 345L107 346L106 345M405 345L406 346L405 345z"/>
<path style="fill:#555555; stroke:none;" d="M105 346L106 347L105 346M406 346L407 347L406 346z"/>
<path style="fill:#2e2e2e; stroke:none;" d="M105 347L106 348L105 347M406 347L407 348L406 347M104 348L105 349L104 348M407 348L408 349L407 348z"/>
<path style="fill:#555555; stroke:none;" d="M103 349L104 350L103 349M408 349L409 350L408 349z"/>
<path style="fill:#2e2e2e; stroke:none;" d="M103 350L104 351L103 350M408 350L409 351L408 350M102 351L103 352L102 351M409 351L410 352L409 351z"/>
<path style="fill:#555555; stroke:none;" d="M101 352L102 353L101 352M410 352L411 353L410 352z"/>
<path style="fill:#2e2e2e; stroke:none;" d="M101 353L102 354L101 353M410 353L411 354L410 353M100.333 354.667L100.667 355.333L100.333 354.667M411.333 354.667L411.667 355.333L411.333 354.667M99 356L100 357L99 356M412 356L413 357L412 356z"/>
<path style="fill:#555555; stroke:none;" d="M98 357L99 358L98 357M413 357L414 358L413 357z"/>
<path style="fill:#2e2e2e; stroke:none;" d="M98 358L99 359L98 358M413 358L414 359L413 358M97 359L98 360L97 359M414 359L415 360L414 359z"/>
<path style="fill:#555555; stroke:none;" d="M96 360L97 361L96 360M415 360L416 361L415 360z"/>
<path style="fill:#2e2e2e; stroke:none;" d="M96 361L97 362L96 361M415 361L416 362L415 361M95 362L96 363L95 362M416 362L417 363L416 362z"/>
<path style="fill:#555555; stroke:none;" d="M94 363L95 364L94 363M417 363L418 364L417 363z"/>
<path style="fill:#2e2e2e; stroke:none;" d="M94 364L95 365L94 364M417 364L418 365L417 364M93.3333 365.667L93.6667 366.333L93.3333 365.667M418.333 365.667L418.667 366.333L418.333 365.667M92 367L93 368L92 367M419 367L420 368L419 367z"/>
<path style="fill:#555555; stroke:none;" d="M91 368L92 369L91 368M420 368L421 369L420 368z"/>
<path style="fill:#2e2e2e; stroke:none;" d="M91 369L92 370L91 369M420 369L421 370L420 369M90 370L91 371L90 370M421 370L422 371L421 370z"/>
<path style="fill:#555555; stroke:none;" d="M89 371L90 372L89 371M422 371L423 372L422 371z"/>
<path style="fill:#2e2e2e; stroke:none;" d="M89 372L90 373L89 372M422 372L423 373L422 372M88 373L89 374L88 373M423 373L424 374L423 373z"/>
<path style="fill:#555555; stroke:none;" d="M87 374L88 375L87 374M424 374L425 375L424 374z"/>
<path style="fill:#2e2e2e; stroke:none;" d="M87 375L88 376L87 375M424 375L425 376L424 375M86.3333 376.667L86.6667 377.333L86.3333 376.667M425.333 376.667L425.667 377.333L425.333 376.667z"/>
<path style="fill:#555555; stroke:none;" d="M85 378L86 379L85 378M426 378L427 379L426 378M84 379L85 380L84 379M427 379L428 380L427 379z"/>
<path style="fill:#2e2e2e; stroke:none;" d="M84 380L85 381L84 380M427 380L428 381L427 380M83 381L84 382L83 381M428 381L429 382L428 381z"/>
<path style="fill:#555555; stroke:none;" d="M82 382L83 383L82 382M429 382L430 383L429 382z"/>
<path style="fill:#2e2e2e; stroke:none;" d="M82 383L83 384L82 383M429 383L430 384L429 383M81 384L82 385L81 384M430 384L431 385L430 384z"/>
<path style="fill:#555555; stroke:none;" d="M80 385L81 386L80 385M431 385L432 386L431 385z"/>
<path style="fill:#2e2e2e; stroke:none;" d="M80 386L81 387L80 386M431 386L432 387L431 386M79.3333 387.667L79.6667 388.333L79.3333 387.667M432.333 387.667L432.667 388.333L432.333 387.667z"/>
<path style="fill:#555555; stroke:none;" d="M78 389L79 390L78 389M433 389L434 390L433 389M77 390L78 391L77 390M434 390L435 391L434 390z"/>
<path style="fill:#2e2e2e; stroke:none;" d="M77 391L78 392L77 391M434 391L435 392L434 391M76 392L77 393L76 392M435 392L436 393L435 392z"/>
<path style="fill:#555555; stroke:none;" d="M75 393L76 394L75 393M436 393L437 394L436 393z"/>
<path style="fill:#2e2e2e; stroke:none;" d="M75 394L76 395L75 394M436 394L437 395L436 394M74 395L75 396L74 395M437 395L438 396L437 395z"/>
<path style="fill:#555555; stroke:none;" d="M73 396L74 397L73 396M438 396L439 397L438 396z"/>
<path style="fill:#2e2e2e; stroke:none;" d="M73 397L74 398L73 397M438 397L439 398L438 397M72.3333 398.667L72.6667 399.333L72.3333 398.667M439.333 398.667L439.667 399.333L439.333 398.667z"/>
<path style="fill:#555555; stroke:none;" d="M71 400L72 401L71 400M440 400L441 401L440 400M70 401L71 402L70 401M441 401L442 402L441 401z"/>
<path style="fill:#2e2e2e; stroke:none;" d="M70 402L71 403L70 402M441 402L442 403L441 402M69 403L70 404L69 403M442 403L443 404L442 403z"/>
<path style="fill:#555555; stroke:none;" d="M68 404L69 405L68 404M443 404L444 405L443 404z"/>
<path style="fill:#2e2e2e; stroke:none;" d="M68 405L69 406L68 405M443 405L444 406L443 405M67 406L68 407L67 406M444 406L445 407L444 406z"/>
<path style="fill:#555555; stroke:none;" d="M66 407L67 408L66 407M445 407L446 408L445 407z"/>
<path style="fill:#2e2e2e; stroke:none;" d="M66 408L67 409L66 408M445 408L446 409L445 408M65.3333 409.667L65.6667 410.333L65.3333 409.667M446.333 409.667L446.667 410.333L446.333 409.667z"/>
<path style="fill:#555555; stroke:none;" d="M64 411L65 412L64 411M447 411L448 412L447 411M63 412L64 413L63 412M448 412L449 413L448 412z"/>
<path style="fill:#2e2e2e; stroke:none;" d="M63 413L64 414L63 413M448 413L449 414L448 413M62 414L63 415L62 414M449 414L450 415L449 414z"/>
<path style="fill:#555555; stroke:none;" d="M61 415L62 416L61 415M450 415L451 416L450 415z"/>
<path style="fill:#2e2e2e; stroke:none;" d="M61 416L62 417L61 416M450 416L451 417L450 416M60 417L61 418L60 417M451 417L452 418L451 417z"/>
<path style="fill:#555555; stroke:none;" d="M59 418L60 419L59 418M452 418L453 419L452 418z"/>
<path style="fill:#2e2e2e; stroke:none;" d="M59 419L60 420L59 419M452 419L453 420L452 419z"/>
<path style="fill:#555555; stroke:none;" d="M58 420L59 421L58 420M453 420L454 421L453 420z"/>
<path style="fill:#2e2e2e; stroke:none;" d="M58 421L59 422L58 421M453 421L454 422L453 421z"/>
<path style="fill:#555555; stroke:none;" d="M57 422L58 423L57 422M454 422L455 423L454 422M56 423L57 424L56 423M455 423L456 424L455 423z"/>
<path style="fill:#2e2e2e; stroke:none;" d="M56 424L57 425L56 424M455 424L456 425L455 424M55 425L56 426L55 425M456 425L457 426L456 425z"/>
<path style="fill:#555555; stroke:none;" d="M54 426L55 427L54 426M457 426L458 427L457 426z"/>
<path style="fill:#2e2e2e; stroke:none;" d="M54 427L55 428L54 427M457 427L458 428L457 427M53 428L54 429L53 428M458 428L459 429L458 428z"/>
<path style="fill:#555555; stroke:none;" d="M52 429L53 430L52 429M459 429L460 430L459 429z"/>
<path style="fill:#2e2e2e; stroke:none;" d="M52 430L53 431L52 430M459 430L460 431L459 430z"/>
<path style="fill:#555555; stroke:none;" d="M51 431L52 432L51 431M460 431L461 432L460 431z"/>
<path style="fill:#2e2e2e; stroke:none;" d="M51 432L52 433L51 432M460 432L461 433L460 432z"/>
<path style="fill:#555555; stroke:none;" d="M50 433L51 434L50 433M461 433L462 434L461 433M49 434L50 435L49 434M462 434L463 435L462 434z"/>
<path style="fill:#2e2e2e; stroke:none;" d="M49 435L50 436L49 435M462 435L463 436L462 435M48 436L49 437L48 436M463 436L464 437L463 436z"/>
<path style="fill:#555555; stroke:none;" d="M47 437L48 438L47 437M464 437L465 438L464 437z"/>
<path style="fill:#2e2e2e; stroke:none;" d="M47 438L48 439L47 438M464 438L465 439L464 438M46 439L47 440L46 439M465 439L466 440L465 439z"/>
<path style="fill:#555555; stroke:none;" d="M45 440L46 441L45 440M466 440L467 441L466 440z"/>
<path style="fill:#2e2e2e; stroke:none;" d="M45 441L46 442L45 441M466 441L467 442L466 441z"/>
<path style="fill:#555555; stroke:none;" d="M44 442L45 443L44 442M467 442L468 443L467 442z"/>
<path style="fill:#2e2e2e; stroke:none;" d="M44 443L45 444L44 443M467 443L468 444L467 443z"/>
<path style="fill:#555555; stroke:none;" d="M43 444L44 445L43 444M468 444L469 445L468 444M42 445L43 446L42 445M469 445L470 446L469 445z"/>
<path style="fill:#2e2e2e; stroke:none;" d="M42 446L43 447L42 446M469 446L470 447L469 446M41 447L42 448L41 447M470 447L471 448L470 447z"/>
<path style="fill:#555555; stroke:none;" d="M40 448L41 449L40 448M471 448L472 449L471 448z"/>
<path style="fill:#2e2e2e; stroke:none;" d="M40 449L41 450L40 449M471 449L472 450L471 449M39.3333 450.667L39.6667 451.333L39.3333 450.667M472.333 450.667L472.667 451.333L472.333 450.667M38 452L39 453L38 452M473 452L474 453L473 452z"/>
<path style="fill:#555555; stroke:none;" d="M37 453L38 454L37 453M474 453L475 454L474 453z"/>
<path style="fill:#2e2e2e; stroke:none;" d="M37 454L38 455L37 454M474 454L475 455L474 454M36 455L37 456L36 455M475 455L476 456L475 455z"/>
<path style="fill:#555555; stroke:none;" d="M35 456L36 457L35 456M476 456L477 457L476 456z"/>
<path style="fill:#2e2e2e; stroke:none;" d="M35 457L36 458L35 457M476 457L477 458L476 457M34 458L35 459L34 458M477 458L478 459L477 458z"/>
<path style="fill:#555555; stroke:none;" d="M33 459L34 460L33 459M478 459L479 460L478 459z"/>
<path style="fill:#2e2e2e; stroke:none;" d="M33 460L34 461L33 460M478 460L479 461L478 460M32.3333 461.667L32.6667 462.333L32.3333 461.667M479.333 461.667L479.667 462.333L479.333 461.667M31 463L32 464L31 463M480 463L481 464L480 463z"/>
<path style="fill:#555555; stroke:none;" d="M30 464L31 465L30 464M481 464L482 465L481 464z"/>
<path style="fill:#2e2e2e; stroke:none;" d="M30 465L31 466L30 465M481 465L482 466L481 465M29 466L30 467L29 466M482 466L483 467L482 466z"/>
<path style="fill:#555555; stroke:none;" d="M28 467L29 468L28 467M483 467L484 468L483 467z"/>
<path style="fill:#2e2e2e; stroke:none;" d="M28 468L29 469L28 468M483 468L484 469L483 468M27 469L28 470L27 469M484 469L485 470L484 469z"/>
<path style="fill:#555555; stroke:none;" d="M26 470L27 471L26 470M485 470L486 471L485 470z"/>
<path style="fill:#2e2e2e; stroke:none;" d="M26 471L27 472L26 471M485 471L486 472L485 471M25.3333 472.667L25.6667 473.333L25.3333 472.667M486.333 472.667L486.667 473.333L486.333 472.667M24 474L25 475L24 474M487 474L488 475L487 474z"/>
<path style="fill:#555555; stroke:none;" d="M23 475L24 476L23 475M488 475L489 476L488 475z"/>
<path style="fill:#2e2e2e; stroke:none;" d="M23 476L24 477L23 476M488 476L489 477L488 476M22 477L23 478L22 477M489 477L490 478L489 477z"/>
<path style="fill:#555555; stroke:none;" d="M21 478L22 479L21 478M490 478L491 479L490 478z"/>
<path style="fill:#2e2e2e; stroke:none;" d="M21 479L22 480L21 479M490 479L491 480L490 479M20 480L21 481L20 480M491 480L492 481L491 480z"/>
<path style="fill:#555555; stroke:none;" d="M19 481L20 482L19 481M492 481L493 482L492 481z"/>
<path style="fill:#2e2e2e; stroke:none;" d="M19 482L20 483L19 482M492 482L493 483L492 482M18.3333 483.667L18.6667 484.333L18.3333 483.667M493.333 483.667L493.667 484.333L493.333 483.667z"/>
<path style="fill:#555555; stroke:none;" d="M17 485L18 486L17 485M494 485L495 486L494 485M16 486L17 487L16 486M495 486L496 487L495 486z"/>
<path style="fill:#2e2e2e; stroke:none;" d="M16 487L17 488L16 487M495 487L496 488L495 487M15 488L16 489L15 488M496 488L497 489L496 488z"/>
<path style="fill:#555555; stroke:none;" d="M14 489L15 490L14 489M497 489L498 490L497 489z"/>
<path style="fill:#2e2e2e; stroke:none;" d="M14 490L15 491L14 490M497 490L498 491L497 490M13 491L14 492L13 491M498 491L499 492L498 491z"/>
<path style="fill:#555555; stroke:none;" d="M12 492L13 493L12 492M499 492L500 493L499 492z"/>
<path style="fill:#2e2e2e; stroke:none;" d="M12 493L13 494L12 493M499 493L500 494L499 493M11.3333 494.667L11.6667 495.333L11.3333 494.667M500.333 494.667L500.667 495.333L500.333 494.667z"/>
<path style="fill:#555555; stroke:none;" d="M10 496L11 497L10 496M501 496L502 497L501 496M9 497L10 498L9 497M502 497L503 498L502 497z"/>
<path style="fill:#2e2e2e; stroke:none;" d="M9 498L10 499L9 498M502 498L503 499L502 498M8 499L9 500L8 499M503 499L504 500L503 499z"/>
<path style="fill:#555555; stroke:none;" d="M7 500L8 501L7 500M504 500L505 501L504 500z"/>
<path style="fill:#2e2e2e; stroke:none;" d="M7 501L8 502L7 501M504 501L505 502L504 501M6 502L7 503L6 502M505 502L506 503L505 502z"/>
<path style="fill:#555555; stroke:none;" d="M4.66667 503.333L5.33333 503.667L4.66667 503.333M506.667 503.333L507.333 503.667L506.667 503.333z"/>
<path style="fill:#2e2e2e; stroke:none;" d="M4 504L5 505L4 504M507 504L508 505L507 504z"/>
<path style="fill:#555555; stroke:none;" d="M0 511L2 511L5 506C1.16373 504.948 0.272292 507.581 0 511M507 505L507 506L510 511L512 511C511.696 507.171 510.795 505.827 507 505z"/>
<path style="fill:#2e2e2e; stroke:none;" d="M2 507L2 509L4 507L2 507M508 507L510 509L510 507L508 507M0 511L1 512L0 511M511 511L512 512L511 511z"/>
</svg>
